<svg id="Layer_1" data-name="Layer 1" xmlns="http://www.w3.org/2000/svg" viewBox="0 0 360 240"><defs><style>.cls-1{fill:#f2f2f2;}.cls-2{fill:#e6e6e6;}.cls-12,.cls-3{fill:#b3b3b3;}.cls-4{fill:#4d4d4d;}.cls-5{fill:#1a1a1a;}.cls-6{fill:#333;}.cls-7{fill:#666;opacity:0.32;}.cls-8{fill:#ccc;}.cls-9{fill:#999;}.cls-10{fill:#70442c;}.cls-11{fill:gray;}.cls-12{opacity:0.12;}.cls-13{fill:#fbb03b;}</style></defs><title>Artboard 5</title><path class="cls-1" d="M0,0V240H360V0ZM222.84,214.78h-6.48l-.18-.31v-30h4.51v24.75h.83V184.5h1.32Z"/><rect class="cls-2" x="54.25" y="58.99" width="102.31" height="52.3"/><rect class="cls-2" y="58.99" width="47.81" height="52.3"/><rect class="cls-2" x="163.24" y="58.99" width="102.31" height="52.3"/><rect class="cls-2" x="272.23" y="58.99" width="87.77" height="52.3"/><rect class="cls-2" x="54.13" y="176.96" width="102.31" height="52.3"/><rect class="cls-2" y="176.96" width="47.69" height="52.3"/><path class="cls-2" d="M163.12,177v52.3H265.43V177Zm59.72,37.82h-6.48l-.18-.31v-30h4.51v24.75h.83V184.5h1.32Z"/><rect class="cls-2" x="272.11" y="176.96" width="87.89" height="52.3"/><rect class="cls-2" width="102.31" height="52.3"/><rect class="cls-2" x="108.99" width="102.31" height="52.3"/><rect class="cls-2" x="217.98" width="102.31" height="52.3"/><rect class="cls-2" x="326.97" width="33.03" height="52.3"/><rect class="cls-2" y="117.97" width="102.06" height="52.3"/><rect class="cls-2" x="108.75" y="117.97" width="102.31" height="52.3"/><rect class="cls-2" x="217.74" y="117.97" width="102.31" height="52.3"/><rect class="cls-2" x="326.72" y="117.97" width="33.28" height="52.3"/><rect class="cls-3" x="124.18" width="21.63" height="98.59"/><rect class="cls-4" x="95.31" y="173.46" width="80.88" height="57.85"/><path class="cls-4" d="M90,161.2V240h90V161.2Zm64.75,60.23-.86-1.48-.68-1.18-3.49-6.05-1-1.75-4.16-7.2-1.56-2.7-7.26-12.58-1.54-2.66h3.1l1.53,2.66,4.17,7.22,1.56,2.71,4.16,7.2,1,1.76,4.17,7.21,1.56,2.71.85,1.47,1.53,2.66Zm7.55-2.66-11.49-19.89-1.56-2.71L145.08,189l-.27-.46-.74-1.29-.79-1.37h25.5v35.6h-4.95Z"/><rect class="cls-5" x="100.16" y="185.83" width="68.62" height="35.6"/><rect class="cls-6" x="100.16" y="188.49" width="68.62" height="30.28"/><rect class="cls-6" x="270" y="161.2" width="90" height="78.8"/><rect class="cls-6" x="270" y="82.4" width="90" height="78.8"/><polygon class="cls-7" points="360 148.98 360 196.88 351.53 182.21 350.94 181.2 339.4 161.2 321.23 129.74 319.67 127.04 315.5 119.81 314.49 118.06 310.33 110.86 308.77 108.16 293.9 82.4 321.56 82.4 360 148.98"/><polygon class="cls-7" points="360 215.32 360 220.67 337.8 182.21 337.21 181.2 325.67 161.2 321.23 153.51 319.67 150.81 315.5 143.59 314.49 141.84 310.33 134.63 308.77 131.93 280.17 82.4 283.26 82.4 308.77 126.58 310.33 129.29 314.49 136.49 315.5 138.24 319.67 145.46 321.23 148.17 328.76 161.2 340.3 181.2 340.89 182.21 360 215.32"/><path class="cls-8" d="M180,161.2V240h90V161.2Zm42.84,53.58h-6.48l-.18-.31v-30h4.51v24.75h.83V184.5h1.32Z"/><polygon class="cls-8" points="222.84 184.5 222.84 214.78 216.36 214.78 216.18 214.47 216.18 184.5 220.69 184.5 220.69 209.25 221.52 209.25 221.52 184.5 222.84 184.5"/><rect class="cls-5" x="314.49" y="82.4" width="1.01" height="98.8"/><rect class="cls-5" x="270" y="181.2" width="90" height="1.01"/><rect class="cls-9" x="180" y="173.46" width="90" height="1.01"/><rect class="cls-9" x="224.5" y="174.47" width="1.01" height="65.53"/><rect class="cls-5" x="314.22" y="164.79" width="1.56" height="48.43" rx="0.78" ry="0.78" transform="translate(504 -126) rotate(90)"/><rect class="cls-5" x="319.67" y="103.26" width="1.56" height="57.07" rx="0.78" ry="0.78"/><rect class="cls-5" x="308.77" y="103.26" width="1.56" height="57.07" rx="0.78" ry="0.78"/><rect class="cls-10" x="176.19" y="157.17" width="93.81" height="4.03"/><rect class="cls-11" x="203.57" y="121.8" width="42.85" height="4.03"/><rect class="cls-10" y="157.17" width="93.81" height="4.03"/><path class="cls-9" d="M135,97.1h-8.55a37.25,37.25,0,0,0-24.71,9.37L90,116.87h45Z"/><path class="cls-9" d="M135,97.1h8.55a37.25,37.25,0,0,1,24.71,9.37L180,116.87H135Z"/><rect class="cls-11" x="228.48" y="182.21" width="0.83" height="27.04"/><rect class="cls-8" y="161.2" width="90" height="78.8"/><rect class="cls-9" y="173.46" width="90" height="1.01"/><rect class="cls-9" x="44.5" y="174.47" width="1.01" height="65.53"/><rect class="cls-11" x="48.48" y="182.21" width="0.83" height="27.04"/><rect class="cls-11" x="40.7" y="182.21" width="0.83" height="27.04"/><rect class="cls-5" x="100.16" y="170.5" width="9.59" height="4.86"/><polygon class="cls-12" points="168.78 188.49 168.78 218.77 162.3 218.77 150.81 198.88 149.25 196.17 145.08 188.95 144.81 188.49 168.78 188.49"/><polygon class="cls-12" points="168.78 185.83 168.78 188.49 144.81 188.49 144.07 187.2 143.28 185.83 168.78 185.83"/><polygon class="cls-12" points="168.78 218.77 168.78 221.43 163.83 221.43 162.3 218.77 168.78 218.77"/><polygon class="cls-12" points="138.82 188.49 135.73 188.49 134.19 185.83 137.29 185.83 138.82 188.49"/><polygon class="cls-12" points="156.3 218.77 153.21 218.77 149.72 212.72 148.71 210.97 144.55 203.77 142.99 201.07 135.73 188.49 138.82 188.49 142.99 195.71 144.55 198.42 148.71 205.62 149.72 207.38 153.89 214.59 155.45 217.3 156.3 218.77"/><polygon class="cls-12" points="157.83 221.43 154.75 221.43 153.89 219.95 153.21 218.77 156.3 218.77 157.83 221.43"/><rect class="cls-6" x="95.31" y="178.79" width="79.37" height="3.98" rx="1.99" ry="1.99"/><rect class="cls-6" x="90" y="226.01" width="90" height="1.01"/><rect class="cls-3" x="40.75" y="138.57" width="8.5" height="3.1"/><rect class="cls-8" x="43.57" y="141.67" width="2.85" height="15.51"/><rect class="cls-8" x="49.73" y="153.53" width="1.34" height="3.65"/><rect class="cls-8" x="50.4" y="151.03" width="1.34" height="3.65" transform="translate(203.93 101.78) rotate(90)"/><rect class="cls-8" x="38.93" y="153.53" width="1.34" height="3.65" transform="translate(79.2 310.7) rotate(-180)"/><rect class="cls-8" x="38.26" y="151.03" width="1.34" height="3.65" transform="translate(191.78 113.93) rotate(90)"/><circle class="cls-11" cx="118.46" cy="172.93" r="2.49"/><circle class="cls-11" cx="133.43" cy="172.93" r="2.49"/><circle class="cls-11" cx="148.41" cy="172.93" r="2.49"/><circle class="cls-11" cx="163.38" cy="172.93" r="2.49"/><circle class="cls-13" cx="234.48" cy="149.33" r="2.81"/><circle class="cls-13" cx="240.1" cy="150.86" r="2.81"/><circle class="cls-13" cx="238.87" cy="148.05" r="2.81"/><circle class="cls-13" cx="244.49" cy="150.86" r="2.81"/><circle class="cls-13" cx="247.71" cy="149.33" r="2.81"/><circle class="cls-13" cx="242.92" cy="147.02" r="2.81"/><path class="cls-6" d="M252.8,150.16a14,14,0,0,1-24.32,0Z"/><rect class="cls-6" x="210.73" y="127.41" width="1.55" height="8.1"/><rect class="cls-3" x="207.81" y="116.14" width="4.47" height="11.27"/><rect class="cls-8" x="207.81" y="116.14" width="0.77" height="11.27"/><rect class="cls-6" x="221.31" y="127.41" width="1.55" height="8.1"/><path class="cls-3" d="M222.85,116.15v11.27h-2V119a3.67,3.67,0,0,1,.41-1.74A1.82,1.82,0,0,1,222.85,116.15Z"/><path class="cls-8" d="M221.3,117.26v10.16h-.41V119A3.67,3.67,0,0,1,221.3,117.26Z"/><rect class="cls-6" x="230.26" y="126.83" width="1.55" height="8.1"/><path class="cls-3" d="M231.81,117.15v9.68h-2v-7.24a2.79,2.79,0,0,1,.41-1.49A1.84,1.84,0,0,1,231.81,117.15Z"/><path class="cls-8" d="M230.26,118.1v8.73h-.41v-7.24A2.79,2.79,0,0,1,230.26,118.1Z"/><rect class="cls-6" x="188.32" y="184.5" width="27.86" height="45.48"/><rect class="cls-4" x="188.32" y="206.59" width="27.86" height="1.29"/><rect class="cls-4" x="188.32" y="195.3" width="27.86" height="1.29"/><rect class="cls-4" x="188.32" y="217.88" width="27.86" height="1.29"/><path class="cls-2" d="M200.29,192.83a5,5,0,0,1-8.58,0Z"/><path class="cls-2" d="M200.29,191.59a5,5,0,0,1-8.58,0Z"/><path class="cls-2" d="M210.85,194.72a5,5,0,0,1-1.18.58h-3.14a5,5,0,0,1-1.18-.58Z"/><path class="cls-2" d="M210.85,194.14a5,5,0,0,1-1.18.58h-3.14a5,5,0,0,1-1.18-.58Z"/><path class="cls-2" d="M210.85,193.56a5,5,0,0,1-1.18.58h-3.14a5,5,0,0,1-1.18-.58Z"/><path class="cls-2" d="M210.85,193a5,5,0,0,1-1.18.58h-3.14a5,5,0,0,1-1.18-.58Z"/><path class="cls-2" d="M200.62,205.62a8.1,8.1,0,0,1-2,1h-5.28a8.1,8.1,0,0,1-2-1Z"/><path class="cls-2" d="M200.62,204.64a8.13,8.13,0,0,1-2,1h-5.28a8.13,8.13,0,0,1-2-1Z"/><path class="cls-2" d="M200.29,190.35a5,5,0,0,1-8.58,0Z"/><path class="cls-2" d="M191.22,214.16h2a.34.34,0,0,1,.34.34V217a.9.9,0,0,1-.9.9h-.83a.9.9,0,0,1-.9-.9V214.5A.34.34,0,0,1,191.22,214.16Z"/><path class="cls-2" d="M194.28,214.16h2a.34.34,0,0,1,.34.34V217a.9.9,0,0,1-.9.9h-.83a.9.9,0,0,1-.9-.9V214.5A.34.34,0,0,1,194.28,214.16Z"/><path class="cls-2" d="M197.33,214.16h2a.34.34,0,0,1,.34.34V217a.9.9,0,0,1-.9.9h-.83a.9.9,0,0,1-.9-.9V214.5A.34.34,0,0,1,197.33,214.16Z"/><path class="cls-2" d="M205.47,212.56h2.16a0,0,0,0,1,0,0V214a1.08,1.08,0,0,1-1.08,1.08h0a1.08,1.08,0,0,1-1.08-1.08v-1.42A0,0,0,0,1,205.47,212.56Z"/><rect class="cls-2" x="206.44" y="214.43" width="0.22" height="3.37"/><rect class="cls-2" x="206.06" y="217.8" width="0.98" height="0.08"/><path class="cls-2" d="M208.26,212.56h2.16a0,0,0,0,1,0,0V214a1.08,1.08,0,0,1-1.08,1.08h0a1.08,1.08,0,0,1-1.08-1.08v-1.42a0,0,0,0,1,0,0Z"/><rect class="cls-2" x="209.23" y="214.43" width="0.22" height="3.37"/><rect class="cls-2" x="208.85" y="217.8" width="0.98" height="0.08"/><polygon class="cls-12" points="216.18 184.5 216.18 214.47 212.37 207.88 211.63 206.59 205.85 196.59 205.11 195.3 204.87 194.89 203.31 192.18 199.14 184.96 198.87 184.5 216.18 184.5"/><rect class="cls-12" x="220.69" y="184.5" width="0.83" height="24.75"/><rect class="cls-11" x="220.69" y="182.21" width="0.83" height="27.04"/></svg>