<svg id="Layer_1" data-name="Layer 1" xmlns="http://www.w3.org/2000/svg" viewBox="0 0 1080 1080"><defs><style>.cls-1{fill:#fffd61;}</style></defs><title>Artboard 1 copy 3</title><path class="cls-1" d="M650.73,413.56a127.22,127.22,0,0,0-221.49,0c-61.63,9.47-107.83,63.18-107.83,125.81,0,70.22,57.11,127.35,127.32,127.35H631.27c70.21,0,127.32-57.13,127.32-127.35C758.59,476.78,712.37,423.06,650.73,413.56ZM631.27,623.91H448.73A84.49,84.49,0,0,1,420,460a83.43,83.43,0,0,1,28.69-5c2,0,3.95.06,5.9.22l3.43.29,1-3.3a82.74,82.74,0,0,1,16.82-30.73,84.29,84.29,0,0,1,128.27,0,83.19,83.19,0,0,1,16.78,30.72l1,3.3,3.44-.29c1.94-.16,3.92-.22,5.93-.22a83,83,0,0,1,28.67,5,84.48,84.48,0,0,1-28.67,163.94Z"/><rect class="cls-1" x="423.18" y="688.18" width="233.65" height="42.85"/></svg>