<svg id="Layer_1" data-name="Layer 1" xmlns="http://www.w3.org/2000/svg" viewBox="0 0 360 240"><defs><style>.cls-1{fill:#e6e6e6;}.cls-2{fill:#875d4b;}.cls-3{fill:#f2f2f2;}.cls-4{fill:#ccc;}</style></defs><title>Artboard 5 copy</title><rect class="cls-1" width="360" height="240"/><rect class="cls-2" x="118" y="44.56" width="123.99" height="166.71" rx="9.42" ry="9.42"/><rect class="cls-3" x="128.68" y="54.8" width="102.63" height="138.71" rx="9.42" ry="9.42"/><rect class="cls-4" x="135.89" y="79.12" width="3.6" height="3.6"/><rect class="cls-4" x="135.89" y="91.64" width="3.6" height="3.6"/><rect class="cls-4" x="135.89" y="104.16" width="3.6" height="3.6"/><rect class="cls-4" x="135.89" y="116.68" width="60.64" height="3.6"/><rect class="cls-4" x="145.53" y="104.16" width="68.06" height="3.6"/><rect class="cls-4" x="145.53" y="129.19" width="68.06" height="3.6"/><rect class="cls-4" x="145.53" y="91.64" width="43.65" height="3.6"/><rect class="cls-4" x="145.53" y="79.12" width="49.9" height="3.6"/><rect class="cls-4" x="135.89" y="129.19" width="3.6" height="3.6"/><rect class="cls-4" x="135.89" y="141.71" width="32.15" height="3.6"/><path class="cls-4" d="M212.05,58h-65a6.34,6.34,0,0,1,6.34-6.34h8.35V46.46a10.91,10.91,0,0,1,10.91-10.91h3.06a3.83,3.83,0,0,0,7.65,0h3.06a10.9,10.9,0,0,1,10.9,10.91v5.17h8.36A6.35,6.35,0,0,1,212.05,58Z"/><path class="cls-4" d="M179.56,28.73a6.82,6.82,0,1,0,6.83,6.82A6.83,6.83,0,0,0,179.56,28.73Zm0,10.64a3.82,3.82,0,1,1,3.83-3.82A3.83,3.83,0,0,1,179.56,39.37Z"/></svg>